<mxfile host="app.diagrams.net" modified="2023-09-14T14:49:06.302Z" agent="Mozilla/5.0 (Windows NT 10.0; Win64; x64; rv:109.0) Gecko/20100101 Firefox/117.0" etag="JGdHSRflsT-2aroo8vob" version="21.7.5" type="device">
  <diagram name="Page-1" id="2vkfxkFbF1cVkGbnRqtL">
    <mxGraphModel dx="1434" dy="754" grid="1" gridSize="10" guides="1" tooltips="1" connect="1" arrows="1" fold="1" page="1" pageScale="1" pageWidth="850" pageHeight="1100" math="0" shadow="0">
      <root>
        <mxCell id="0" />
        <mxCell id="1" parent="0" />
        <mxCell id="Re7l62vaKNUYqpzztQtT-3" style="edgeStyle=orthogonalEdgeStyle;rounded=0;orthogonalLoop=1;jettySize=auto;html=1;entryX=0.25;entryY=0;entryDx=0;entryDy=0;" parent="1" target="Re7l62vaKNUYqpzztQtT-2" edge="1">
          <mxGeometry relative="1" as="geometry">
            <mxPoint x="360" y="370" as="sourcePoint" />
            <mxPoint x="390" y="500" as="targetPoint" />
            <Array as="points" />
          </mxGeometry>
        </mxCell>
        <mxCell id="Re7l62vaKNUYqpzztQtT-4" value="Ketemu Sebuah Bola" style="edgeLabel;html=1;align=center;verticalAlign=middle;resizable=0;points=[];" parent="Re7l62vaKNUYqpzztQtT-3" vertex="1" connectable="0">
          <mxGeometry x="0.1846" y="2" relative="1" as="geometry">
            <mxPoint x="-12" y="-29" as="offset" />
          </mxGeometry>
        </mxCell>
        <mxCell id="Re7l62vaKNUYqpzztQtT-8" style="edgeStyle=orthogonalEdgeStyle;rounded=0;orthogonalLoop=1;jettySize=auto;html=1;entryX=1;entryY=0.5;entryDx=0;entryDy=0;" parent="1" source="Re7l62vaKNUYqpzztQtT-1" target="Re7l62vaKNUYqpzztQtT-7" edge="1">
          <mxGeometry relative="1" as="geometry">
            <Array as="points">
              <mxPoint x="350" y="250" />
              <mxPoint x="180" y="250" />
            </Array>
          </mxGeometry>
        </mxCell>
        <mxCell id="Re7l62vaKNUYqpzztQtT-9" value="Ketemu Musuh kalau punya bola" style="edgeLabel;html=1;align=center;verticalAlign=middle;resizable=0;points=[];" parent="Re7l62vaKNUYqpzztQtT-8" vertex="1" connectable="0">
          <mxGeometry x="0.54" y="-3" relative="1" as="geometry">
            <mxPoint x="33" y="-17" as="offset" />
          </mxGeometry>
        </mxCell>
        <mxCell id="Re7l62vaKNUYqpzztQtT-1" value="&lt;div&gt;Mencari Bola / &lt;br&gt;&lt;/div&gt;&lt;div&gt;Mencari Musuh&lt;/div&gt;" style="rounded=0;whiteSpace=wrap;html=1;" parent="1" vertex="1">
          <mxGeometry x="330" y="330" width="120" height="60" as="geometry" />
        </mxCell>
        <mxCell id="Re7l62vaKNUYqpzztQtT-5" value="" style="edgeStyle=orthogonalEdgeStyle;rounded=0;orthogonalLoop=1;jettySize=auto;html=1;entryX=0.75;entryY=1;entryDx=0;entryDy=0;" parent="1" target="Re7l62vaKNUYqpzztQtT-1" edge="1">
          <mxGeometry relative="1" as="geometry">
            <mxPoint x="430.0344827586207" y="520" as="sourcePoint" />
            <mxPoint x="430" y="390" as="targetPoint" />
            <Array as="points">
              <mxPoint x="420" y="520" />
            </Array>
          </mxGeometry>
        </mxCell>
        <mxCell id="Re7l62vaKNUYqpzztQtT-6" value="&lt;div&gt;Bolanya Diambil / &lt;br&gt;&lt;/div&gt;&lt;div&gt;Bola yang mau diambil hilang&lt;br&gt;&lt;/div&gt;" style="edgeLabel;html=1;align=center;verticalAlign=middle;resizable=0;points=[];" parent="Re7l62vaKNUYqpzztQtT-5" vertex="1" connectable="0">
          <mxGeometry x="-0.1692" y="-1" relative="1" as="geometry">
            <mxPoint x="49" y="-12" as="offset" />
          </mxGeometry>
        </mxCell>
        <mxCell id="Re7l62vaKNUYqpzztQtT-2" value="&lt;div&gt;Ambil Bola&lt;/div&gt;" style="rounded=0;whiteSpace=wrap;html=1;" parent="1" vertex="1">
          <mxGeometry x="330" y="520" width="120" height="60" as="geometry" />
        </mxCell>
        <mxCell id="Re7l62vaKNUYqpzztQtT-16" style="edgeStyle=orthogonalEdgeStyle;rounded=0;orthogonalLoop=1;jettySize=auto;html=1;entryX=0.25;entryY=0;entryDx=0;entryDy=0;" parent="1" source="Re7l62vaKNUYqpzztQtT-7" target="Re7l62vaKNUYqpzztQtT-15" edge="1">
          <mxGeometry relative="1" as="geometry">
            <Array as="points">
              <mxPoint x="90" y="330" />
              <mxPoint x="90" y="330" />
            </Array>
          </mxGeometry>
        </mxCell>
        <mxCell id="Re7l62vaKNUYqpzztQtT-23" value="&lt;div&gt;Kalau target&lt;/div&gt;&lt;div&gt;pergi dari pandangan&lt;br&gt;&lt;/div&gt;" style="edgeLabel;html=1;align=center;verticalAlign=middle;resizable=0;points=[];" parent="Re7l62vaKNUYqpzztQtT-16" vertex="1" connectable="0">
          <mxGeometry x="-0.0708" y="-2" relative="1" as="geometry">
            <mxPoint x="-28" as="offset" />
          </mxGeometry>
        </mxCell>
        <mxCell id="Re7l62vaKNUYqpzztQtT-19" style="edgeStyle=orthogonalEdgeStyle;rounded=0;orthogonalLoop=1;jettySize=auto;html=1;entryX=0.5;entryY=1;entryDx=0;entryDy=0;" parent="1" source="Re7l62vaKNUYqpzztQtT-7" target="Re7l62vaKNUYqpzztQtT-18" edge="1">
          <mxGeometry relative="1" as="geometry" />
        </mxCell>
        <mxCell id="Re7l62vaKNUYqpzztQtT-20" value="&lt;div&gt;Musuh ada di dalam &lt;br&gt;&lt;/div&gt;&lt;div&gt;pandangan selama&lt;/div&gt;&lt;div&gt;beberapa detik&lt;br&gt;&lt;/div&gt;" style="edgeLabel;html=1;align=center;verticalAlign=middle;resizable=0;points=[];" parent="Re7l62vaKNUYqpzztQtT-19" vertex="1" connectable="0">
          <mxGeometry x="0.2181" y="1" relative="1" as="geometry">
            <mxPoint x="1" as="offset" />
          </mxGeometry>
        </mxCell>
        <mxCell id="Re7l62vaKNUYqpzztQtT-7" value="Bidik Musuh" style="rounded=0;whiteSpace=wrap;html=1;" parent="1" vertex="1">
          <mxGeometry x="60" y="220" width="120" height="60" as="geometry" />
        </mxCell>
        <mxCell id="Re7l62vaKNUYqpzztQtT-17" style="edgeStyle=orthogonalEdgeStyle;rounded=0;orthogonalLoop=1;jettySize=auto;html=1;entryX=0.828;entryY=1.025;entryDx=0;entryDy=0;entryPerimeter=0;" parent="1" source="Re7l62vaKNUYqpzztQtT-15" target="Re7l62vaKNUYqpzztQtT-7" edge="1">
          <mxGeometry relative="1" as="geometry">
            <Array as="points">
              <mxPoint x="160" y="380" />
              <mxPoint x="159" y="380" />
            </Array>
          </mxGeometry>
        </mxCell>
        <mxCell id="Re7l62vaKNUYqpzztQtT-24" value="&lt;div&gt;Kalau target&lt;/div&gt;&lt;div&gt;kembali ke pandangan&lt;/div&gt;" style="edgeLabel;html=1;align=center;verticalAlign=middle;resizable=0;points=[];" parent="Re7l62vaKNUYqpzztQtT-17" vertex="1" connectable="0">
          <mxGeometry x="0.0426" relative="1" as="geometry">
            <mxPoint x="11" y="-8" as="offset" />
          </mxGeometry>
        </mxCell>
        <mxCell id="Re7l62vaKNUYqpzztQtT-25" style="edgeStyle=orthogonalEdgeStyle;rounded=0;orthogonalLoop=1;jettySize=auto;html=1;entryX=0;entryY=0.75;entryDx=0;entryDy=0;" parent="1" source="Re7l62vaKNUYqpzztQtT-15" target="Re7l62vaKNUYqpzztQtT-1" edge="1">
          <mxGeometry relative="1" as="geometry">
            <Array as="points">
              <mxPoint x="240" y="550" />
              <mxPoint x="240" y="375" />
            </Array>
          </mxGeometry>
        </mxCell>
        <mxCell id="Re7l62vaKNUYqpzztQtT-26" value="&lt;div&gt;Beberapa detik berlalu&amp;nbsp;&lt;/div&gt;&lt;div&gt;tanpa ketemu musuh&lt;/div&gt;&lt;div&gt;atau mencoba mengejar&lt;/div&gt;&lt;div&gt;beberapa kali&lt;/div&gt;&lt;div&gt;tanpa berhasil&lt;br&gt;&lt;/div&gt;" style="edgeLabel;html=1;align=center;verticalAlign=middle;resizable=0;points=[];" parent="Re7l62vaKNUYqpzztQtT-25" vertex="1" connectable="0">
          <mxGeometry x="-0.013" relative="1" as="geometry">
            <mxPoint x="10" y="30" as="offset" />
          </mxGeometry>
        </mxCell>
        <mxCell id="Re7l62vaKNUYqpzztQtT-15" value="Kejar Musuh" style="rounded=0;whiteSpace=wrap;html=1;" parent="1" vertex="1">
          <mxGeometry x="60" y="520" width="120" height="60" as="geometry" />
        </mxCell>
        <mxCell id="Re7l62vaKNUYqpzztQtT-21" style="edgeStyle=orthogonalEdgeStyle;rounded=0;orthogonalLoop=1;jettySize=auto;html=1;entryX=0.5;entryY=0;entryDx=0;entryDy=0;" parent="1" source="Re7l62vaKNUYqpzztQtT-18" target="Re7l62vaKNUYqpzztQtT-1" edge="1">
          <mxGeometry relative="1" as="geometry">
            <mxPoint x="370" y="330" as="targetPoint" />
            <Array as="points">
              <mxPoint x="390" y="90" />
            </Array>
          </mxGeometry>
        </mxCell>
        <mxCell id="Re7l62vaKNUYqpzztQtT-22" value="&lt;div&gt;Kembali mencari bola atau&amp;nbsp;&lt;/div&gt;&lt;div&gt;mencari musuh baru&amp;nbsp;&lt;/div&gt;&lt;div&gt;setelah menembak&lt;/div&gt;" style="edgeLabel;html=1;align=center;verticalAlign=middle;resizable=0;points=[];" parent="Re7l62vaKNUYqpzztQtT-21" vertex="1" connectable="0">
          <mxGeometry x="-0.5922" y="2" relative="1" as="geometry">
            <mxPoint x="8" as="offset" />
          </mxGeometry>
        </mxCell>
        <mxCell id="Re7l62vaKNUYqpzztQtT-18" value="Tembak Musuh" style="rounded=0;whiteSpace=wrap;html=1;" parent="1" vertex="1">
          <mxGeometry x="60" y="60" width="120" height="60" as="geometry" />
        </mxCell>
        <mxCell id="Re7l62vaKNUYqpzztQtT-29" style="edgeStyle=orthogonalEdgeStyle;rounded=0;orthogonalLoop=1;jettySize=auto;html=1;entryX=1.011;entryY=0.421;entryDx=0;entryDy=0;entryPerimeter=0;" parent="1" source="Re7l62vaKNUYqpzztQtT-28" target="Re7l62vaKNUYqpzztQtT-1" edge="1">
          <mxGeometry relative="1" as="geometry">
            <Array as="points">
              <mxPoint x="451" y="360" />
            </Array>
          </mxGeometry>
        </mxCell>
        <mxCell id="Re7l62vaKNUYqpzztQtT-30" value="&lt;div&gt;Berhasil menangkap atau tidak&lt;/div&gt;&lt;div&gt;akan kembali ke state ini&lt;br&gt;&lt;/div&gt;" style="edgeLabel;html=1;align=center;verticalAlign=middle;resizable=0;points=[];" parent="Re7l62vaKNUYqpzztQtT-29" vertex="1" connectable="0">
          <mxGeometry x="0.071" y="-4" relative="1" as="geometry">
            <mxPoint x="8" y="-26" as="offset" />
          </mxGeometry>
        </mxCell>
        <mxCell id="Re7l62vaKNUYqpzztQtT-28" value="Coba Tangkap Bola" style="rounded=0;whiteSpace=wrap;html=1;" parent="1" vertex="1">
          <mxGeometry x="630" y="330" width="120" height="60" as="geometry" />
        </mxCell>
        <mxCell id="Re7l62vaKNUYqpzztQtT-33" value="&lt;div&gt;Melihat Bola datang ke bot atau&lt;/div&gt;&lt;div&gt;melihat player fake out&lt;/div&gt;" style="edgeStyle=orthogonalEdgeStyle;rounded=0;orthogonalLoop=1;jettySize=auto;html=1;entryX=0.5;entryY=1;entryDx=0;entryDy=0;" parent="1" source="Re7l62vaKNUYqpzztQtT-31" target="Re7l62vaKNUYqpzztQtT-28" edge="1">
          <mxGeometry relative="1" as="geometry" />
        </mxCell>
        <mxCell id="Re7l62vaKNUYqpzztQtT-31" value="State apapun" style="rounded=0;whiteSpace=wrap;html=1;" parent="1" vertex="1">
          <mxGeometry x="630" y="520" width="120" height="60" as="geometry" />
        </mxCell>
        <mxCell id="SQswq27Usnpj8PPxNBmo-2" style="edgeStyle=orthogonalEdgeStyle;rounded=0;orthogonalLoop=1;jettySize=auto;html=1;entryX=0.75;entryY=0;entryDx=0;entryDy=0;" parent="1" source="SQswq27Usnpj8PPxNBmo-1" target="Re7l62vaKNUYqpzztQtT-1" edge="1">
          <mxGeometry relative="1" as="geometry" />
        </mxCell>
        <mxCell id="SQswq27Usnpj8PPxNBmo-1" value="Start State" style="rounded=0;whiteSpace=wrap;html=1;" parent="1" vertex="1">
          <mxGeometry x="630" y="60" width="120" height="60" as="geometry" />
        </mxCell>
      </root>
    </mxGraphModel>
  </diagram>
</mxfile>
